<?xml version="1.0" encoding="UTF-8"?>
<svg id="Layer_1" data-name="Layer 1" xmlns="http://www.w3.org/2000/svg" viewBox="0 0 575.8 149.71">
  <defs>
    <style>
      .cls-1 {
        fill: #fff;
      }
    </style>
  </defs>
  <path class="cls-1" d="M230.44,30.93c-6.05-4.28-3.79-10.92-9.62-15.7-4.31-3.54-9.8-3.39-19.24-3.14-8.04,.21-14.64,1.74-19.24,3.14-1.05-3.02-3.45-8.25-8.82-11.78-9.4-6.18-21.63-3.05-28.86,1.57-5.99,3.83-9.05,9.01-10.42,11.78-3.07-2.55-7.88-5.99-14.43-8.64-2.87-1.16-22.65-9.15-39.28-.79-10.97,5.51-7.95,11.8-22.45,20.42-8.88,5.28-12.56,4.44-18.44,10.21-4.22,4.15-3.77,6.01-10.42,18.85-8.75,16.9-10.78,16.08-13.63,25.13-2.61,8.27-1.27,10.06-4.81,19.63-2.19,5.91-3.7,9.99-7.13,14.89-2.24,3.2-4.03,4.94-3.58,5.53,.54,.71,4.16-.42,17.92-8.63h.01c4.86-5.83,5.54-8.93,8.02-11.79,2.58-2.98,7.36-5.97,9.62-4.71,2.18,1.22,2.1,6.43,0,12.56-5.88,4.71-11.76,9.42-17.64,14.13,2.4,2.62,4.81,5.23,7.21,7.85,2.37-1.66,6.44-4.11,12.02-5.5,2.47-.62,12.5-3.11,15.23,.79,1.14,1.63,.06,3.02-.8,9.42-.76,5.63-1.63,12.03,.8,13.35,1.86,1.01,3.88-1.91,8.82-2.36,3.38-.3,6.22,.72,8.02,1.57l8.82-8.64c-6.75,2.62-13.17-.5-14.43-4.71-.84-2.8,.58-6.16,3.21-8.64,3.04,1.03,6.86,1.83,11.22,1.57,16.43-.96,25.99-16,27.26-18.06,2.68-1.8,7.65-4.61,14.43-5.5,7.49-.98,13.2,.9,17.64,2.36,4.32,1.42,11.28,3.8,17.64,10.21,5.13,5.18,7.61,10.71,8.82,14.13,.2-.59,2.12-5.93,8.02-7.85,.6-.2,6.12-1.89,11.22,1.57,1.13-2.31,2.69-5.01,4.81-7.85,2.2-2.94,4.45-5.28,6.41-7.07-3.07,1.57-8.4,3.77-15.23,3.93-7.62,.17-13.15-2.29-18.44-4.71-9.34-4.28-16.8-7.7-20.84-15.7-5.74-11.37-.31-23.54,.8-25.91,3.85,.17,6.73-.63,8.82-1.57,10.78-4.88,16.19-20.93,13.63-40.05,4.24,2.62,9.05,5.29,14.43,7.85,7.2,3.43,13.98,5.96,20.04,7.85,2.1-3.96,3.79-9.01,2.4-14.13-1.42-5.23-5.38-8.04-4.81-8.64,.75-.79,8.12,3.38,13.63,10.21,3.53,4.38,5.39,8.73,6.41,11.78,2.31-1.23,5.65-2.54,9.62-2.36,5.75,.27,8.49,3.5,12.02,2.36,1.82-.59,4.04-2.4,5.61-7.85-3.34,.39-8.14,.39-12.02-2.36Z"/>
  <path class="cls-1" d="M256.43,26.01c.42,0,.67,.01,.73,.04,.14,.05,.21,.38,.21,.98v18.93c0,.66-.04,1.06-.12,1.21-.08,.15-.26,.28-.54,.39-.28,.11-.82,.19-1.61,.26-.79,.07-1.85,.11-3.19,.11v.35h15.23v-.35c-1.35,0-2.43-.04-3.22-.11-.79-.07-1.33-.16-1.61-.26-.28-.1-.44-.2-.49-.3-.09-.19-.14-.62-.14-1.3V27c0-.54,.05-.84,.14-.91,.05-.05,.3-.07,.77-.07,1.87,0,3.28,.6,4.23,1.79,1.17,1.43,2.02,4.05,2.56,7.87h.49v-9.98h-20.72v9.91h.49c.58-3.77,1.46-6.38,2.62-7.83,.96-1.17,2.35-1.76,4.17-1.76Z"/>
  <path class="cls-1" d="M279.84,47.96c-.35,0-.75-.02-1.21-.07s-.77-.11-.94-.18c-.18-.07-.29-.14-.33-.21-.07-.14-.1-.45-.1-.91v-7.03c.21-1.55,.61-2.86,1.19-3.94,.7-1.29,1.54-1.93,2.52-1.93,.91,0,1.53,.39,1.85,1.16,.21,.49,.31,1.24,.31,2.25v9.5c0,.56-.07,.9-.21,1.02-.37,.14-.81,.24-1.29,.28-.49,.05-.92,.07-1.29,.07v.32h9.03v-.32c-.49,0-.98-.02-1.47-.07-.49-.05-.83-.11-1.02-.18-.19-.07-.3-.14-.35-.21-.07-.14-.1-.44-.1-.91v-9.3c0-1.05-.33-1.94-.98-2.67-.82-.89-2.04-1.33-3.67-1.33-.09,0-.25,.01-.47,.04-.22,.02-.43,.04-.61,.04-.93,.09-1.74,.68-2.41,1.75-.54,.86-.88,1.76-1.02,2.7v-12.39l-6.72,.6v.31c1.45,0,2.38,.06,2.8,.18,.14,.05,.29,.19,.46,.42,.09,.12,.15,.28,.16,.49,.01,.21,.02,.47,.02,.77v18.39c0,.56-.07,.9-.21,1.02-.4,.14-.87,.24-1.42,.28-.55,.05-1.16,.07-1.84,.07v.32h9.34v-.32Z"/>
  <path class="cls-1" d="M296.68,48.59c1.87,0,3.36-.56,4.48-1.68s1.68-2.55,1.68-4.3h-.28c0,1.81-.59,3.24-1.79,4.3-.98,.87-2.11,1.3-3.39,1.3-1.21,0-2.12-.56-2.71-1.69-.59-1.13-.89-2.94-.89-5.45h9c0-2.96-.74-5.1-2.21-6.41-1-.89-2.26-1.33-3.78-1.33-1.63,0-3.1,.67-4.41,2-1.49,1.54-2.24,3.54-2.24,5.99,0,2.26,.76,4.09,2.27,5.5,1.28,1.19,2.71,1.79,4.27,1.79Zm-2.13-13.21c.52-1.13,1.41-1.7,2.68-1.7,.9,0,1.55,.6,1.96,1.79,.4,1.19,.61,2.92,.61,5.18h-6.02c0-2.38,.26-4.14,.78-5.27Z"/>
  <path class="cls-1" d="M265.7,92.37c.73,0,1.61,.05,2.62,.15,1.02,.1,1.69,.22,2.02,.35,.33,.13,.55,.32,.65,.55,.1,.23,.15,.8,.15,1.7v6.07c0,2.31-.63,4.06-1.89,5.27-1.26,1.2-3.01,1.81-5.26,1.81-2.42,0-4.31-1.38-5.69-4.14-1.37-2.76-2.06-6.71-2.06-11.83s.74-9.15,2.23-11.98c1.48-2.83,3.51-4.24,6.08-4.24,2.7,0,5.05,1.13,7.05,3.39,2.13,2.42,3.55,5.85,4.25,10.26h.45v-14.1l-2.83,5.25c-1.56-2.13-3.15-3.58-4.74-4.35-1.27-.6-2.93-.9-4.99-.9-3.06,0-6.04,1.45-8.94,4.35-3.4,3.4-5.09,7.7-5.09,12.9s1.55,9.47,4.65,12.3c2.56,2.37,5.73,3.55,9.49,3.55,1.47,0,2.61-.15,3.42-.45,.82-.3,1.86-.94,3.12-1.91,.33-.33,.68-.67,1.05-1,.77-.67,1.71-1,2.85-1,.65,0,1.2,.33,1.63,.98,.43,.65,.65,1.63,.65,2.93h.4v-13.14c0-.94,.1-1.57,.3-1.91,.1-.17,.34-.28,.73-.35,.38-.07,1.12-.17,2.23-.3,1.1-.13,2.02-.2,2.75-.2v-.45h-17.25v.45Z"/>
  <path class="cls-1" d="M305.45,99.37h-.6v.45c0,.5,0,.98,.03,1.44,.02,.46,.02,.93,.02,1.39,0,1.69-.15,2.98-.45,3.88-.3,.9-.88,1.34-1.75,1.34-.97,0-1.57-.56-1.8-1.7-.1-.47-.15-1.7-.15-3.69v-11.02c0-1.26-.57-2.31-1.7-3.14-1.27-.93-3.13-1.4-5.6-1.4-1.37,0-2.72,.22-4.05,.65-1.87,.6-3.03,1.55-3.5,2.85-.2,.6-.3,1.13-.3,1.6,0,.97,.49,1.77,1.46,2.4,.34,.23,.72,.35,1.16,.35,.67,0,1.26-.23,1.77-.7,.5-.47,.76-1.07,.76-1.8,0-.63-.2-1.2-.6-1.7-.4-.5-.92-.75-1.55-.75-.2,0-.37,.02-.5,.05,.27-.75,.83-1.34,1.7-1.79,.86-.44,1.87-.66,3.02-.66,1.41,0,2.32,.23,2.75,.7,.42,.47,.64,1.37,.64,2.71v2.91c0,1.27-.35,2.09-1.05,2.45-.7,.37-2.04,.63-4.03,.8s-3.69,.85-5.08,2.05c-1.39,1.24-2.09,2.75-2.09,4.56s.72,3.21,2.15,4.11c1.03,.67,2.25,1,3.65,1s2.52-.17,3.35-.5c1.4-.56,2.45-1.65,3.15-3.27,.27,1.42,.82,2.43,1.66,3.02,.7,.5,1.78,.74,3.22,.74,1.84,0,3.07-.42,3.67-1.25,.47-.67,.7-1.97,.7-3.9-.03-.63-.05-1.3-.05-2v-2.2Zm-9.4,3.42c0,1.51-.51,2.79-1.53,3.84s-2.16,1.58-3.42,1.58c-.83,0-1.44-.34-1.83-1.03-.38-.69-.58-2-.58-3.94,0-1.81,.33-3.22,1-4.22,.57-.84,1.33-1.37,2.3-1.61,.73-.1,1.49-.21,2.27-.33s1.38-.44,1.78-.98v6.68Z"/>
  <path class="cls-1" d="M316.1,107.17c-.1-.2-.15-.63-.15-1.3v-30.25l-9.6,.85v.45c2.07,0,3.4,.08,4,.25,.2,.07,.4,.23,.6,.5,.2,.27,.3,.74,.3,1.4v26.79c0,.8-.1,1.29-.3,1.46-.57,.2-1.24,.33-2.02,.4-.78,.07-1.66,.1-2.62,.1v.45h14.6v-.45c-2.2,0-3.65-.12-4.35-.35-.23-.1-.38-.2-.45-.3Z"/>
  <path class="cls-1" d="M331.85,107.17c-.1-.2-.15-.63-.15-1.3v-30.25l-9.6,.85v.45c2.07,0,3.4,.08,4,.25,.2,.07,.4,.23,.6,.5s.3,.74,.3,1.4v26.79c0,.8-.1,1.29-.3,1.46-.57,.2-1.24,.33-2.03,.4s-1.66,.1-2.62,.1v.45h14.6v-.45c-2.2,0-3.65-.12-4.35-.35-.23-.1-.38-.2-.45-.3Z"/>
  <path class="cls-1" d="M348.25,86.92c-2.53,0-4.82,.95-6.85,2.85-2.23,2.1-3.35,4.77-3.35,8,0,3.4,1.13,6.15,3.4,8.25,1.93,1.8,4.2,2.7,6.8,2.7s4.82-.97,6.85-2.9c2.23-2.13,3.35-4.82,3.35-8.05s-1.13-6.08-3.4-8.15c-1.97-1.8-4.23-2.7-6.8-2.7Zm3.85,18.8c-.77,1.7-2.05,2.55-3.85,2.55-1.97,0-3.29-.83-3.98-2.5-.68-1.67-1.02-4.33-1.02-8s.38-6.23,1.15-7.9c.77-1.67,2.05-2.5,3.85-2.5,1.97,0,3.32,.87,4.05,2.6,.63,1.5,.95,4.1,.95,7.8s-.38,6.25-1.15,7.95Z"/>
  <path class="cls-1" d="M374.35,86.92c-1.7,0-3.07,.88-4.1,2.64-.73,1.26-1.2,2.76-1.4,4.49v-7.13l-9.6,.85v.45c2.07,0,3.4,.08,4,.25,.2,.07,.4,.23,.6,.5,.2,.27,.3,.74,.3,1.41v25.94c0,.8-.1,1.29-.3,1.45-.57,.2-1.24,.33-2.02,.4-.78,.07-1.66,.1-2.62,.1v.45h14.6v-.45c-2.2,0-3.65-.12-4.35-.35-.23-.1-.38-.2-.45-.3-.1-.2-.15-.64-.15-1.3v-13.72c.2,1.43,.6,2.69,1.2,3.79,.87,1.56,2.03,2.34,3.5,2.34,2.8,0,5.12-1.3,6.95-3.9,1.57-2.2,2.35-4.5,2.35-6.9,0-3.5-.85-6.25-2.55-8.25-1.57-1.83-3.55-2.75-5.95-2.75Zm2.38,19.06c-.61,1.49-1.71,2.24-3.31,2.24-1.33,0-2.37-.87-3.13-2.61s-1.14-4.29-1.14-7.64,.55-6,1.64-8.04c.89-1.71,1.91-2.56,3.03-2.56,1.66,0,2.75,1.02,3.28,3.07,.36,1.41,.55,3.88,.55,7.43,0,3.92-.31,6.62-.92,8.12Z"/>
  <path class="cls-1" d="M391.52,81.22c.79,0,1.45-.27,1.98-.8,.53-.53,.79-1.2,.79-2s-.26-1.47-.79-2c-.53-.53-1.19-.8-1.98-.8s-1.45,.27-1.98,.8c-.53,.53-.79,1.2-.79,2s.26,1.47,.79,2c.53,.53,1.19,.8,1.98,.8Z"/>
  <path class="cls-1" d="M394.3,107.17c-.1-.2-.15-.64-.15-1.31v-18.94l-9.65,.8v.45c2.13,0,3.5,.08,4.1,.25,.2,.07,.42,.27,.65,.6,.13,.17,.2,.57,.2,1.21v15.62c0,.81-.1,1.29-.3,1.46-.57,.2-1.24,.34-2.02,.4-.78,.07-1.66,.1-2.62,.1v.45h14.6v-.45c-2.2,0-3.65-.12-4.35-.35-.23-.1-.38-.2-.45-.3Z"/>
  <path class="cls-1" d="M423.05,107.47c-.27-.1-.43-.2-.5-.3-.1-.2-.15-.63-.15-1.3v-13.28c0-1.47-.52-2.74-1.55-3.81-1.23-1.27-2.9-1.91-5-1.91-.3,0-.97,.06-2,.17-1.03,.12-2.02,.94-2.95,2.47-.67,1.1-1.1,2.36-1.3,3.79v-6.38l-9.05,.8v.45c2.2,0,3.47,.12,3.8,.35l.3,.5c.13,.17,.21,.4,.22,.7s.03,.6,.03,.9v15.23c0,.8-.1,1.29-.3,1.46-.57,.2-1.21,.33-1.93,.4s-1.44,.1-2.17,.1v.45h12.8v-.45c-.5,0-1.07-.03-1.72-.1s-1.1-.15-1.35-.25c-.25-.1-.41-.2-.48-.3-.1-.2-.15-.64-.15-1.31v-9.85c.3-2.38,.82-4.29,1.55-5.73,.97-1.91,2.22-2.86,3.75-2.86,1.17,0,1.97,.69,2.4,2.06,.27,.84,.4,2.06,.4,3.67v12.71c0,.8-.1,1.29-.3,1.46-.53,.2-1.15,.33-1.85,.4-.7,.07-1.32,.1-1.85,.1v.45h12.8v-.45c-.63,0-1.3-.03-2-.1-.7-.07-1.18-.15-1.45-.25Z"/>
  <path class="cls-1" d="M444.5,106.02c-1.53-.8-3.77-1.2-6.73-1.2h-2.89c-2.33,0-3.89-.15-4.69-.45-.83-.27-1.25-.65-1.25-1.15,0-1.13,.48-1.95,1.43-2.45,.72-.37,1.66-.55,2.82-.55,1.37,.53,2.82,.8,4.35,.8,2.17,0,4.12-.58,5.85-1.75,1.93-1.3,2.9-2.97,2.9-5,0-1.37-.38-2.57-1.12-3.6s-1.78-1.87-3.08-2.5c0-.33-.02-.85-.05-1.55,0-.83,.11-1.49,.33-1.97,.22-.48,.66-.77,1.33-.87-.1,.17-.18,.34-.25,.51-.07,.17-.1,.35-.1,.56,0,1.08,.57,1.62,1.7,1.62s1.65-.59,1.65-1.78c0-.54-.18-.98-.55-1.32s-.8-.51-1.3-.51c-1.13,0-1.97,.24-2.52,.73-.55,.48-.83,1.51-.83,3.08v1.2c-.6-.27-1.25-.48-1.95-.65s-1.37-.25-2-.25c-2.13,0-4.08,.68-5.85,2.05-1.93,1.5-2.9,3.32-2.9,5.45,0,1.27,.3,2.33,.9,3.2,.6,.87,1.43,1.57,2.5,2.1-1.53,0-2.72,.45-3.55,1.35-.83,.9-1.25,2.05-1.25,3.45s.48,2.42,1.45,3.25c.7,.6,1.78,1.17,3.25,1.7-1.63,.47-2.83,.92-3.6,1.35-1.1,.63-1.65,1.42-1.65,2.35,0,1.43,1,2.71,3,3.83,2,1.12,4.68,1.67,8.05,1.67,2.83,0,5.12-.67,6.88-2,1.75-1.33,2.62-3.23,2.62-5.7,0-2.33-.96-4-2.89-5Zm-10.2-16.84c.67-1.17,1.75-1.76,3.24-1.76,1.61,0,2.75,.62,3.41,1.86,.56,1.04,.84,2.62,.84,4.74,0,2.25-.33,3.91-.99,4.96-.66,1.06-1.75,1.59-3.26,1.59-1.68,0-2.81-.5-3.38-1.51-.58-1.01-.87-2.69-.87-5.04,0-2.05,.34-3.66,1.01-4.84Zm9.12,27.68c-1.24,.94-2.99,1.41-5.24,1.41-3.25,0-5.48-.53-6.71-1.6-.8-.7-1.19-1.75-1.19-3.15s.48-2.5,1.45-3.1c1.16-.73,3.3-1.1,6.43-1.1,2.72,0,4.59,.28,5.6,.85,1.01,.57,1.52,1.66,1.52,3.27,0,1.34-.62,2.48-1.86,3.42Z"/>
  <path class="cls-1" d="M477.7,92.37c.73,0,1.61,.05,2.62,.15,1.02,.1,1.69,.22,2.03,.35,.33,.13,.55,.32,.65,.55,.1,.23,.15,.8,.15,1.7v6.07c0,2.31-.63,4.06-1.89,5.27-1.26,1.2-3.01,1.81-5.26,1.81-2.42,0-4.31-1.38-5.69-4.14s-2.06-6.71-2.06-11.83,.74-9.15,2.23-11.98c1.48-2.83,3.51-4.24,6.08-4.24,2.7,0,5.05,1.13,7.05,3.39,2.13,2.42,3.55,5.85,4.25,10.26h.45v-14.1l-2.83,5.25c-1.56-2.13-3.15-3.58-4.74-4.35-1.27-.6-2.93-.9-4.99-.9-3.06,0-6.04,1.45-8.94,4.35-3.4,3.4-5.09,7.7-5.09,12.9s1.55,9.47,4.65,12.3c2.56,2.37,5.73,3.55,9.49,3.55,1.47,0,2.61-.15,3.42-.45,.82-.3,1.86-.94,3.12-1.91,.33-.33,.68-.67,1.05-1,.77-.67,1.71-1,2.85-1,.65,0,1.2,.33,1.63,.98,.43,.65,.65,1.63,.65,2.93h.4v-13.14c0-.94,.1-1.57,.3-1.91,.1-.17,.34-.28,.73-.35,.38-.07,1.12-.17,2.22-.3,1.1-.13,2.02-.2,2.75-.2v-.45h-17.25v.45Z"/>
  <path class="cls-1" d="M505.6,86.92c-2.53,0-4.82,.95-6.85,2.85-2.23,2.1-3.35,4.77-3.35,8,0,3.4,1.13,6.15,3.4,8.25,1.93,1.8,4.2,2.7,6.8,2.7s4.82-.97,6.85-2.9c2.23-2.13,3.35-4.82,3.35-8.05s-1.13-6.08-3.4-8.15c-1.97-1.8-4.23-2.7-6.8-2.7Zm3.85,18.8c-.77,1.7-2.05,2.55-3.85,2.55-1.97,0-3.29-.83-3.98-2.5-.68-1.67-1.02-4.33-1.02-8s.38-6.23,1.15-7.9c.77-1.67,2.05-2.5,3.85-2.5,1.97,0,3.32,.87,4.05,2.6,.63,1.5,.95,4.1,.95,7.8s-.38,6.25-1.15,7.95Z"/>
  <path class="cls-1" d="M527.99,86.92c-2.53,0-4.82,.95-6.85,2.85-2.23,2.1-3.35,4.77-3.35,8,0,3.4,1.13,6.15,3.4,8.25,1.93,1.8,4.2,2.7,6.8,2.7s4.82-.97,6.85-2.9c2.23-2.13,3.35-4.82,3.35-8.05s-1.13-6.08-3.4-8.15c-1.97-1.8-4.23-2.7-6.8-2.7Zm3.85,18.8c-.77,1.7-2.05,2.55-3.85,2.55-1.97,0-3.29-.83-3.97-2.5-.68-1.67-1.03-4.33-1.03-8s.38-6.23,1.15-7.9c.77-1.67,2.05-2.5,3.85-2.5,1.97,0,3.32,.87,4.05,2.6,.63,1.5,.95,4.1,.95,7.8s-.38,6.25-1.15,7.95Z"/>
  <path class="cls-1" d="M553.9,97.57c-.96-.77-2.64-1.43-5.03-2-2.39-.57-3.99-1.08-4.78-1.55-1.13-.67-1.69-1.6-1.69-2.8,0-1.47,.52-2.52,1.55-3.15,.77-.47,1.75-.7,2.95-.7,1.57,0,3,.68,4.3,2.05,1.2,1.27,2.03,2.9,2.5,4.9l.4,.1v-7.5c-.07,.07-.75,.58-2.05,1.55-.2-.03-.93-.33-2.2-.9-.97-.43-2.1-.65-3.4-.65-1.7,0-3.14,.61-4.33,1.82-1.18,1.22-1.78,2.69-1.78,4.43,0,1.93,.7,3.48,2.11,4.65,1.17,.97,2.82,1.67,4.94,2.1s3.61,.93,4.44,1.5c1.07,.73,1.61,1.85,1.61,3.35,0,1.17-.4,2.07-1.21,2.7-.67,.53-1.52,.8-2.56,.8-1.37,0-2.4-.09-3.09-.28-.69-.18-1.41-.64-2.18-1.38-.57-.53-1.11-1.35-1.61-2.45-.37-.8-.84-2.23-1.41-4.3h-.35v8.85c.07-.07,.77-.88,2.1-2.45,1.1,1.13,2.12,1.85,3.05,2.15,.63,.2,1.68,.3,3.15,.3,1.77,0,3.23-.42,4.4-1.25,1.47-1.03,2.2-2.63,2.2-4.8,0-2.33-.68-4.03-2.04-5.1Z"/>
  <path class="cls-1" d="M575.4,100.17c0,2.58-.85,4.63-2.55,6.14-1.4,1.24-3.02,1.86-4.85,1.86-1.73,0-3.02-.8-3.88-2.41-.85-1.61-1.27-4.2-1.27-7.79h12.85c0-4.23-1.05-7.28-3.15-9.15-1.43-1.27-3.23-1.9-5.4-1.9-2.33,0-4.43,.95-6.3,2.85-2.13,2.2-3.2,5.05-3.2,8.55,0,3.23,1.08,5.85,3.25,7.85,1.83,1.7,3.87,2.55,6.1,2.55,2.67,0,4.8-.8,6.4-2.4,1.6-1.6,2.4-3.65,2.4-6.15h-.4Zm-11.44-10.33c.74-1.62,2.02-2.42,3.83-2.42,1.29,0,2.22,.85,2.79,2.55,.58,1.7,.86,4.17,.86,7.4h-8.6c0-3.4,.37-5.91,1.11-7.53Z"/>
</svg>