<?xml version="1.0" encoding="UTF-8"?><svg id="a" xmlns="http://www.w3.org/2000/svg" viewBox="0 0 363.34 205.14"><defs><style>.b{fill:#fff;}</style></defs><g><path class="b" d="M178.12,136.02h-7.32v26.07h5.92v-9.92h1.02c2.8,0,4.99-.72,6.57-2.16s2.37-3.43,2.37-5.97-.78-4.35-2.34-5.82-3.63-2.21-6.21-2.21Zm1.53,10.39c-.63,.48-1.61,.74-2.94,.76v-6.15c1.37,.03,2.36,.27,2.97,.73,.61,.46,.92,1.25,.92,2.37,0,1.04-.32,1.8-.95,2.29Z"/><path class="b" d="M201.11,143.54c-1.82,0-3.43,.97-4.82,2.91h-.1v-11.88h-5.66v27.52h5.66v-10.8c0-1.6,.59-2.4,1.78-2.4,.49,0,.88,.2,1.16,.6,.28,.4,.42,.95,.42,1.65v10.96h5.68v-13.67c0-1.55-.36-2.75-1.08-3.6s-1.74-1.28-3.04-1.28Z"/><path class="b" d="M216.16,143.5c-2.51,0-4.44,.86-5.77,2.59-1.33,1.73-2,4.12-2,7.2s.7,5.25,2.1,6.93c1.4,1.68,3.29,2.52,5.67,2.52s4.43-.82,5.84-2.47,2.11-3.97,2.11-6.98-.68-5.47-2.03-7.2c-1.35-1.73-3.33-2.59-5.92-2.59Zm1.71,13.12c-.37,.69-.93,1.04-1.67,1.04-1.45,0-2.17-1.51-2.17-4.53,0-1.72,.19-2.9,.57-3.54,.38-.64,.92-.97,1.64-.97s1.28,.33,1.64,1c.36,.66,.55,1.82,.55,3.48s-.19,2.84-.56,3.54Z"/><polygon class="b" points="233.84 139.34 228.16 139.34 228.16 144.12 226.01 144.12 226.01 148.81 228.16 148.81 228.16 162.09 233.8 162.09 233.8 148.85 236.05 148.85 236.05 144.12 233.84 144.12 233.84 139.34"/><path class="b" d="M245.7,143.5c-2.51,0-4.44,.86-5.77,2.59-1.33,1.73-2,4.12-2,7.2s.7,5.25,2.1,6.93c1.4,1.68,3.29,2.52,5.67,2.52s4.43-.82,5.84-2.47,2.11-3.97,2.11-6.98-.68-5.47-2.03-7.2c-1.35-1.73-3.33-2.59-5.92-2.59Zm1.71,13.12c-.37,.69-.93,1.04-1.67,1.04-1.45,0-2.17-1.51-2.17-4.53,0-1.72,.19-2.9,.57-3.54,.38-.64,.92-.97,1.64-.97s1.28,.33,1.64,1c.36,.66,.55,1.82,.55,3.48s-.19,2.84-.56,3.54Z"/><path class="b" d="M266.32,146.02h-.08c-1.11-1.63-2.47-2.44-4.08-2.44-1.81,0-3.24,.82-4.28,2.46-1.04,1.64-1.56,3.9-1.56,6.78s.53,5.22,1.6,6.83c1.07,1.61,2.56,2.41,4.49,2.41,1.52,0,2.84-.81,3.95-2.44v2.56c0,.85-.25,1.56-.76,2.14s-1.13,.87-1.88,.87c-.87,0-1.6-.46-2.19-1.37h-5.08c.43,2.04,1.36,3.5,2.79,4.38,1.43,.87,2.96,1.31,4.59,1.31s3.12-.39,4.49-1.17,2.32-1.86,2.86-3.22c.54-1.37,.81-2.81,.81-4.34v-16.64h-5.68v1.89Zm-2.19,11.27c-1.52,0-2.29-1.64-2.29-4.92,0-1.25,.21-2.23,.62-2.93,.42-.7,.98-1.05,1.7-1.05,1.46,0,2.19,1.45,2.19,4.36s-.74,4.55-2.23,4.55Z"/><path class="b" d="M281.85,147.13h-.08v-3.01h-5.43v17.97h5.66v-8.93c0-2.7,1.04-4.04,3.12-4.04,.59,0,1.22,.06,1.91,.18v-5.57c-.39-.08-.7-.12-.92-.12-1.5,0-2.92,1.17-4.28,3.52Z"/><path class="b" d="M299.02,146.37h-.08c-.68-.99-1.33-1.71-1.95-2.16s-1.39-.67-2.29-.67c-1.68,0-3.03,.85-4.06,2.56-1.03,1.71-1.54,4-1.54,6.88s.51,5.36,1.52,7.11,2.38,2.62,4.08,2.62c.87,0,1.63-.24,2.28-.72s1.31-1.23,2-2.25h.08v2.36h5.64v-17.97h-5.68v2.25Zm-2.07,11.29c-1.52,0-2.29-1.55-2.29-4.65s.74-4.47,2.21-4.47,2.19,1.49,2.19,4.47-.7,4.65-2.11,4.65Z"/><path class="b" d="M319.08,143.61c-1.59,0-3.01,.93-4.28,2.79h-.1v-2.29h-5.66v25.37h5.66v-9.77h.1c1.11,2,2.53,3.01,4.28,3.01,1.65,0,3.01-.87,4.07-2.62,1.06-1.75,1.59-4.04,1.59-6.88s-.52-5.28-1.55-7.02-2.41-2.61-4.11-2.61Zm-2.25,14.08c-1.42,0-2.13-1.54-2.13-4.61s.71-4.47,2.13-4.47c1.5,0,2.25,1.48,2.25,4.43s-.75,4.65-2.25,4.65Z"/><path class="b" d="M338.66,143.54c-1.82,0-3.43,.97-4.82,2.91h-.1v-11.88h-5.66v27.52h5.66v-10.8c0-1.6,.59-2.4,1.78-2.4,.49,0,.88,.2,1.16,.6,.28,.4,.42,.95,.42,1.65v10.96h5.68v-13.67c0-1.55-.36-2.75-1.08-3.6s-1.74-1.28-3.04-1.28Z"/><path class="b" d="M354,150.39c-.2,.65-.44,1.73-.74,3.22h-.1c-.36-1.58-.79-3.18-1.29-4.82l-1.43-4.67h-5.61l5.72,17.73-2.3,7.64h5.66l7.66-25.37h-5.68l-1.89,6.27Z"/><polygon class="b" points="178.37 125.71 197.86 125.71 197.86 60.33 211.12 60.33 211.12 40.97 165.23 40.97 165.23 60.33 178.37 60.33 178.37 125.71"/><path class="b" d="M247.24,83.56c1.9,0,3.98,.19,6.22,.57v-18.09c-1.27-.25-2.26-.38-2.98-.38-4.87,0-9.5,3.81-13.9,11.43h-.25v-9.78h-17.65v58.4h18.41v-29.01c0-8.76,3.39-13.14,10.16-13.14Z"/><path class="b" d="M304.94,80.01c-1.82-4.44-4.72-8.01-8.7-10.7-3.98-2.69-8.12-4.03-12.44-4.03-7.15,0-12.89,2.78-17.2,8.35s-6.47,12.96-6.47,22.18c0,9.9,2.16,17.67,6.47,23.3,4.32,5.63,10.18,8.44,17.58,8.44,11.85,0,19.25-6.56,22.22-19.68h-15.55c-.25,1.82-.99,3.3-2.22,4.44-1.23,1.14-2.62,1.71-4.19,1.71-4.57,0-6.98-4.34-7.24-13.01h30.79c-.21-9.56-1.23-16.57-3.05-21.01Zm-27.49,10.98c0-4.23,.53-7.3,1.59-9.2,1.06-1.9,2.81-2.86,5.27-2.86,2.2,0,3.81,.98,4.82,2.95,1.02,1.97,1.59,5,1.71,9.11h-13.39Z"/><path class="b" d="M343.98,112.32c-1.23,1.14-2.62,1.71-4.19,1.71-4.57,0-6.98-4.34-7.24-13.01h30.79c-.21-9.56-1.23-16.57-3.05-21.01-1.82-4.44-4.72-8.01-8.7-10.7-3.98-2.69-8.12-4.03-12.44-4.03-7.15,0-12.89,2.78-17.2,8.35s-6.47,12.96-6.47,22.18c0,9.9,2.16,17.67,6.47,23.3,4.32,5.63,10.18,8.44,17.58,8.44,11.85,0,19.25-6.56,22.22-19.68h-15.55c-.25,1.82-.99,3.3-2.22,4.44Zm-9.58-30.53c1.06-1.9,2.81-2.86,5.27-2.86,2.2,0,3.81,.98,4.82,2.95,1.02,1.97,1.59,5,1.71,9.11h-13.39c0-4.23,.53-7.3,1.59-9.2Z"/></g><ellipse class="b" cx="39" cy="69.85" rx="39" ry="45.85"/><ellipse class="b" cx="72" cy="54.5" rx="44" ry="54.5"/><ellipse class="b" cx="106.5" cy="65.5" rx="34.5" ry="43.5"/><ellipse class="b" cx="72" cy="132.14" rx="7.5" ry="73"/><ellipse class="b" cx="72.12" cy="95" rx="5.12" ry="29.5"/></svg>